<mxfile host="Electron" agent="Mozilla/5.0 (Macintosh; Intel Mac OS X 10_15_7) AppleWebKit/537.36 (KHTML, like Gecko) draw.io/26.2.2 Chrome/134.0.6998.178 Electron/35.1.2 Safari/537.36" version="26.2.2">
  <diagram name="Page-1" id="RS8h1vYBFyePiC8QH87L">
    <mxGraphModel dx="1020" dy="699" grid="1" gridSize="10" guides="1" tooltips="1" connect="1" arrows="1" fold="1" page="1" pageScale="1" pageWidth="827" pageHeight="1169" math="0" shadow="0">
      <root>
        <mxCell id="0" />
        <mxCell id="1" parent="0" />
        <mxCell id="hsYkVXqX7cKiI_WS-YSM-1" value="" style="shape=cylinder3;whiteSpace=wrap;html=1;boundedLbl=1;backgroundOutline=1;size=72.25;sketch=1;curveFitting=1;jiggle=2;" parent="1" vertex="1">
          <mxGeometry x="201" y="140" width="461" height="930" as="geometry" />
        </mxCell>
        <mxCell id="hsYkVXqX7cKiI_WS-YSM-27" value="&lt;div&gt;&lt;b&gt;Payment Integration&lt;/b&gt;&lt;/div&gt;&lt;div&gt;&lt;br&gt;&lt;/div&gt;&lt;div&gt;&lt;br&gt;&lt;/div&gt;&lt;div&gt;&lt;br&gt;&lt;/div&gt;" style="rounded=1;whiteSpace=wrap;html=1;fontSize=14;verticalAlign=top;sketch=1;curveFitting=1;jiggle=2;" parent="1" vertex="1">
          <mxGeometry x="452" y="310" width="166" height="150" as="geometry" />
        </mxCell>
        <mxCell id="hsYkVXqX7cKiI_WS-YSM-9" value="&lt;b&gt;Booking Management&lt;/b&gt;&lt;div&gt;&lt;br&gt;&lt;/div&gt;&lt;div&gt;&lt;br&gt;&lt;/div&gt;&lt;div&gt;&lt;br&gt;&lt;/div&gt;&lt;div&gt;&lt;br&gt;&lt;/div&gt;" style="rounded=1;whiteSpace=wrap;html=1;fontSize=14;verticalAlign=top;sketch=1;curveFitting=1;jiggle=2;" parent="1" vertex="1">
          <mxGeometry x="236" y="700" width="166" height="150" as="geometry" />
        </mxCell>
        <mxCell id="hsYkVXqX7cKiI_WS-YSM-3" value="&lt;b&gt;Property Management&lt;/b&gt;&lt;div&gt;&lt;br&gt;&lt;/div&gt;&lt;div&gt;&lt;br&gt;&lt;/div&gt;&lt;div&gt;&lt;br&gt;&lt;/div&gt;" style="rounded=1;whiteSpace=wrap;html=1;fontSize=14;verticalAlign=top;sketch=1;curveFitting=1;jiggle=2;" parent="1" vertex="1">
          <mxGeometry x="236" y="480" width="166" height="110" as="geometry" />
        </mxCell>
        <mxCell id="hsYkVXqX7cKiI_WS-YSM-5" style="edgeStyle=orthogonalEdgeStyle;rounded=1;orthogonalLoop=1;jettySize=auto;html=1;curved=0;strokeColor=#3333FF;dashed=1;endArrow=oval;endFill=1;sketch=1;curveFitting=1;jiggle=2;" parent="1" source="hsYkVXqX7cKiI_WS-YSM-4" target="hsYkVXqX7cKiI_WS-YSM-3" edge="1">
          <mxGeometry relative="1" as="geometry" />
        </mxCell>
        <mxCell id="hsYkVXqX7cKiI_WS-YSM-6" style="edgeStyle=orthogonalEdgeStyle;rounded=1;orthogonalLoop=1;jettySize=auto;html=1;entryX=0;entryY=0.5;entryDx=0;entryDy=0;curved=0;strokeColor=#3333FF;dashed=1;endArrow=oval;endFill=1;sketch=1;curveFitting=1;jiggle=2;" parent="1" source="hsYkVXqX7cKiI_WS-YSM-4" target="hsYkVXqX7cKiI_WS-YSM-2" edge="1">
          <mxGeometry relative="1" as="geometry" />
        </mxCell>
        <mxCell id="hsYkVXqX7cKiI_WS-YSM-8" style="edgeStyle=orthogonalEdgeStyle;rounded=1;orthogonalLoop=1;jettySize=auto;html=1;entryX=0;entryY=0.5;entryDx=0;entryDy=0;curved=0;strokeColor=#3333FF;dashed=1;endArrow=oval;endFill=1;sketch=1;curveFitting=1;jiggle=2;" parent="1" source="hsYkVXqX7cKiI_WS-YSM-4" target="hsYkVXqX7cKiI_WS-YSM-7" edge="1">
          <mxGeometry relative="1" as="geometry" />
        </mxCell>
        <mxCell id="hsYkVXqX7cKiI_WS-YSM-25" style="edgeStyle=orthogonalEdgeStyle;rounded=1;orthogonalLoop=1;jettySize=auto;html=1;entryX=0;entryY=0.5;entryDx=0;entryDy=0;curved=0;jumpStyle=arc;strokeColor=#3333FF;dashed=1;endArrow=oval;endFill=1;sketch=1;curveFitting=1;jiggle=2;" parent="1" source="hsYkVXqX7cKiI_WS-YSM-4" target="hsYkVXqX7cKiI_WS-YSM-16" edge="1">
          <mxGeometry relative="1" as="geometry">
            <Array as="points">
              <mxPoint x="150" y="535" />
              <mxPoint x="150" y="785" />
            </Array>
          </mxGeometry>
        </mxCell>
        <mxCell id="hsYkVXqX7cKiI_WS-YSM-26" style="edgeStyle=orthogonalEdgeStyle;rounded=1;orthogonalLoop=1;jettySize=auto;html=1;entryX=0;entryY=0.5;entryDx=0;entryDy=0;curved=0;jumpStyle=arc;strokeColor=#3333FF;dashed=1;endArrow=oval;endFill=1;sketch=1;curveFitting=1;jiggle=2;" parent="1" source="hsYkVXqX7cKiI_WS-YSM-4" target="hsYkVXqX7cKiI_WS-YSM-17" edge="1">
          <mxGeometry relative="1" as="geometry">
            <Array as="points">
              <mxPoint x="149" y="535" />
              <mxPoint x="149" y="825" />
            </Array>
          </mxGeometry>
        </mxCell>
        <mxCell id="hsYkVXqX7cKiI_WS-YSM-32" style="edgeStyle=orthogonalEdgeStyle;rounded=1;orthogonalLoop=1;jettySize=auto;html=1;entryX=0;entryY=0.5;entryDx=0;entryDy=0;curved=0;jumpStyle=arc;strokeColor=#3333FF;dashed=1;endArrow=oval;endFill=1;sketch=1;curveFitting=1;jiggle=2;" parent="1" source="hsYkVXqX7cKiI_WS-YSM-4" target="hsYkVXqX7cKiI_WS-YSM-29" edge="1">
          <mxGeometry relative="1" as="geometry">
            <Array as="points">
              <mxPoint x="47" y="470" />
              <mxPoint x="422" y="470" />
              <mxPoint x="422" y="395" />
            </Array>
          </mxGeometry>
        </mxCell>
        <mxCell id="hsYkVXqX7cKiI_WS-YSM-34" style="edgeStyle=orthogonalEdgeStyle;rounded=1;orthogonalLoop=1;jettySize=auto;html=1;entryX=0.5;entryY=1;entryDx=0;entryDy=0;curved=0;jumpStyle=arc;strokeColor=#3333FF;dashed=1;endArrow=oval;endFill=1;sketch=1;curveFitting=1;jiggle=2;" parent="1" source="hsYkVXqX7cKiI_WS-YSM-4" target="hsYkVXqX7cKiI_WS-YSM-30" edge="1">
          <mxGeometry relative="1" as="geometry">
            <Array as="points">
              <mxPoint x="47" y="470" />
              <mxPoint x="535" y="470" />
            </Array>
          </mxGeometry>
        </mxCell>
        <mxCell id="hsYkVXqX7cKiI_WS-YSM-4" value="Host" style="shape=umlActor;verticalLabelPosition=bottom;verticalAlign=top;html=1;outlineConnect=0;strokeColor=#3333FF;sketch=1;curveFitting=1;jiggle=2;" parent="1" vertex="1">
          <mxGeometry x="32" y="509" width="30" height="60" as="geometry" />
        </mxCell>
        <mxCell id="hsYkVXqX7cKiI_WS-YSM-7" value="&lt;b&gt;Search and Filter&lt;/b&gt;&lt;div&gt;&lt;br&gt;&lt;/div&gt;&lt;div&gt;* search properties&lt;/div&gt;" style="rounded=1;whiteSpace=wrap;html=1;fontSize=14;sketch=1;curveFitting=1;jiggle=2;" parent="1" vertex="1">
          <mxGeometry x="236" y="608" width="166" height="70" as="geometry" />
        </mxCell>
        <mxCell id="hsYkVXqX7cKiI_WS-YSM-13" value="&lt;span style=&quot;font-size: 14px;&quot;&gt;* create property listing&lt;/span&gt;" style="rounded=0;whiteSpace=wrap;html=1;sketch=1;curveFitting=1;jiggle=2;" parent="1" vertex="1">
          <mxGeometry x="267" y="510" width="100" height="30" as="geometry" />
        </mxCell>
        <mxCell id="hsYkVXqX7cKiI_WS-YSM-14" value="&lt;span style=&quot;font-size: 14px;&quot;&gt;* modify property listing&lt;/span&gt;" style="rounded=0;whiteSpace=wrap;html=1;sketch=1;curveFitting=1;jiggle=2;" parent="1" vertex="1">
          <mxGeometry x="267" y="550" width="100" height="30" as="geometry" />
        </mxCell>
        <mxCell id="hsYkVXqX7cKiI_WS-YSM-15" value="&lt;span style=&quot;font-size: 14px;&quot;&gt;* create booking&lt;/span&gt;" style="rounded=0;whiteSpace=wrap;html=1;sketch=1;curveFitting=1;jiggle=2;" parent="1" vertex="1">
          <mxGeometry x="269" y="730" width="100" height="30" as="geometry" />
        </mxCell>
        <mxCell id="hsYkVXqX7cKiI_WS-YSM-16" value="&lt;span style=&quot;font-size: 14px;&quot;&gt;* cancel booking&lt;/span&gt;" style="rounded=0;whiteSpace=wrap;html=1;sketch=1;curveFitting=1;jiggle=2;" parent="1" vertex="1">
          <mxGeometry x="269" y="770" width="100" height="30" as="geometry" />
        </mxCell>
        <mxCell id="hsYkVXqX7cKiI_WS-YSM-17" value="&lt;span style=&quot;font-size: 14px;&quot;&gt;* confirm booking status&lt;/span&gt;" style="rounded=0;whiteSpace=wrap;html=1;sketch=1;curveFitting=1;jiggle=2;" parent="1" vertex="1">
          <mxGeometry x="269" y="810" width="100" height="30" as="geometry" />
        </mxCell>
        <mxCell id="hsYkVXqX7cKiI_WS-YSM-24" style="edgeStyle=orthogonalEdgeStyle;rounded=1;orthogonalLoop=1;jettySize=auto;html=1;entryX=0;entryY=0.5;entryDx=0;entryDy=0;curved=0;jumpStyle=arc;strokeColor=#FF0000;dashed=1;endArrow=oval;endFill=1;sketch=1;curveFitting=1;jiggle=2;" parent="1" source="hsYkVXqX7cKiI_WS-YSM-18" target="hsYkVXqX7cKiI_WS-YSM-9" edge="1">
          <mxGeometry relative="1" as="geometry" />
        </mxCell>
        <mxCell id="hsYkVXqX7cKiI_WS-YSM-31" style="edgeStyle=orthogonalEdgeStyle;rounded=1;orthogonalLoop=1;jettySize=auto;html=1;entryX=0;entryY=0.5;entryDx=0;entryDy=0;curved=0;jumpStyle=arc;strokeColor=#FF0000;dashed=1;endArrow=oval;endFill=1;sketch=1;curveFitting=1;jiggle=2;" parent="1" source="hsYkVXqX7cKiI_WS-YSM-18" target="hsYkVXqX7cKiI_WS-YSM-28" edge="1">
          <mxGeometry relative="1" as="geometry">
            <Array as="points">
              <mxPoint x="87" y="300" />
              <mxPoint x="432" y="300" />
              <mxPoint x="432" y="355" />
            </Array>
          </mxGeometry>
        </mxCell>
        <mxCell id="hsYkVXqX7cKiI_WS-YSM-28" value="&lt;span style=&quot;font-size: 14px;&quot;&gt;* make upfront payment&lt;/span&gt;" style="rounded=0;whiteSpace=wrap;html=1;sketch=1;curveFitting=1;jiggle=2;" parent="1" vertex="1">
          <mxGeometry x="485" y="340" width="100" height="30" as="geometry" />
        </mxCell>
        <mxCell id="hsYkVXqX7cKiI_WS-YSM-29" value="&lt;span style=&quot;font-size: 14px;&quot;&gt;* automatic payouts&lt;/span&gt;" style="rounded=0;whiteSpace=wrap;html=1;sketch=1;curveFitting=1;jiggle=2;" parent="1" vertex="1">
          <mxGeometry x="485" y="380" width="100" height="30" as="geometry" />
        </mxCell>
        <mxCell id="hsYkVXqX7cKiI_WS-YSM-30" value="&lt;span style=&quot;font-size: 14px;&quot;&gt;* support multi currencies&lt;/span&gt;" style="rounded=0;whiteSpace=wrap;html=1;sketch=1;curveFitting=1;jiggle=2;" parent="1" vertex="1">
          <mxGeometry x="485" y="420" width="100" height="30" as="geometry" />
        </mxCell>
        <mxCell id="hsYkVXqX7cKiI_WS-YSM-2" value="&lt;b&gt;User Management&lt;/b&gt;&lt;div&gt;&lt;br&gt;&lt;/div&gt;&lt;div&gt;&lt;br&gt;&lt;/div&gt;&lt;div&gt;&lt;br&gt;&lt;/div&gt;&lt;div&gt;&lt;br&gt;&lt;/div&gt;" style="rounded=1;whiteSpace=wrap;html=1;fontSize=14;verticalAlign=top;sketch=1;curveFitting=1;jiggle=2;" parent="1" vertex="1">
          <mxGeometry x="232" y="310" width="170" height="150" as="geometry" />
        </mxCell>
        <mxCell id="hsYkVXqX7cKiI_WS-YSM-10" value="&lt;span style=&quot;font-size: 14px;&quot;&gt;* register user&lt;/span&gt;" style="rounded=0;whiteSpace=wrap;html=1;sketch=1;curveFitting=1;jiggle=2;" parent="1" vertex="1">
          <mxGeometry x="267" y="340" width="100" height="30" as="geometry" />
        </mxCell>
        <mxCell id="hsYkVXqX7cKiI_WS-YSM-11" value="&lt;span style=&quot;font-size: 14px;&quot;&gt;* securely login user&lt;/span&gt;" style="rounded=0;whiteSpace=wrap;html=1;sketch=1;curveFitting=1;jiggle=2;" parent="1" vertex="1">
          <mxGeometry x="267" y="380" width="100" height="30" as="geometry" />
        </mxCell>
        <mxCell id="hsYkVXqX7cKiI_WS-YSM-12" value="&lt;span style=&quot;font-size: 14px;&quot;&gt;* manage user profile&lt;/span&gt;" style="rounded=0;whiteSpace=wrap;html=1;sketch=1;curveFitting=1;jiggle=2;" parent="1" vertex="1">
          <mxGeometry x="267" y="420" width="100" height="30" as="geometry" />
        </mxCell>
        <mxCell id="hsYkVXqX7cKiI_WS-YSM-20" style="edgeStyle=orthogonalEdgeStyle;rounded=1;orthogonalLoop=1;jettySize=auto;html=1;entryX=0;entryY=0.25;entryDx=0;entryDy=0;curved=0;strokeColor=#FF0000;dashed=1;endArrow=oval;endFill=1;sketch=1;curveFitting=1;jiggle=2;" parent="1" source="hsYkVXqX7cKiI_WS-YSM-18" target="hsYkVXqX7cKiI_WS-YSM-2" edge="1">
          <mxGeometry relative="1" as="geometry" />
        </mxCell>
        <mxCell id="hsYkVXqX7cKiI_WS-YSM-33" style="edgeStyle=orthogonalEdgeStyle;rounded=1;orthogonalLoop=1;jettySize=auto;html=1;entryX=0;entryY=0.5;entryDx=0;entryDy=0;curved=0;jumpStyle=arc;strokeColor=#FF0000;dashed=1;endArrow=oval;endFill=1;sketch=1;curveFitting=1;jiggle=2;" parent="1" source="hsYkVXqX7cKiI_WS-YSM-18" target="hsYkVXqX7cKiI_WS-YSM-30" edge="1">
          <mxGeometry relative="1" as="geometry">
            <Array as="points">
              <mxPoint x="87" y="300" />
              <mxPoint x="432" y="300" />
              <mxPoint x="432" y="435" />
            </Array>
          </mxGeometry>
        </mxCell>
        <mxCell id="hsYkVXqX7cKiI_WS-YSM-45" style="edgeStyle=orthogonalEdgeStyle;rounded=1;orthogonalLoop=1;jettySize=auto;html=1;entryX=0;entryY=0.25;entryDx=0;entryDy=0;curved=0;strokeColor=#FF0000;sketch=1;curveFitting=1;jiggle=2;endArrow=oval;endFill=1;dashed=1;" parent="1" source="hsYkVXqX7cKiI_WS-YSM-18" target="hsYkVXqX7cKiI_WS-YSM-7" edge="1">
          <mxGeometry relative="1" as="geometry" />
        </mxCell>
        <mxCell id="hsYkVXqX7cKiI_WS-YSM-18" value="Guest" style="shape=umlActor;verticalLabelPosition=bottom;verticalAlign=top;html=1;outlineConnect=0;strokeColor=#FF0000;sketch=1;curveFitting=1;jiggle=2;" parent="1" vertex="1">
          <mxGeometry x="72" y="325" width="30" height="60" as="geometry" />
        </mxCell>
        <mxCell id="hsYkVXqX7cKiI_WS-YSM-35" value="&lt;div&gt;&lt;b&gt;Review and Ratings&lt;/b&gt;&lt;/div&gt;" style="rounded=1;whiteSpace=wrap;html=1;fontSize=14;verticalAlign=top;sketch=1;curveFitting=1;jiggle=2;" parent="1" vertex="1">
          <mxGeometry x="452" y="480" width="166" height="150" as="geometry" />
        </mxCell>
        <mxCell id="hsYkVXqX7cKiI_WS-YSM-36" value="&lt;span style=&quot;font-size: 14px;&quot;&gt;* post reviews and ratings&lt;/span&gt;" style="rounded=0;whiteSpace=wrap;html=1;sketch=1;curveFitting=1;jiggle=2;" parent="1" vertex="1">
          <mxGeometry x="485" y="510" width="100" height="30" as="geometry" />
        </mxCell>
        <mxCell id="hsYkVXqX7cKiI_WS-YSM-37" value="&lt;span style=&quot;font-size: 14px;&quot;&gt;* respond to reviews&lt;/span&gt;" style="rounded=0;whiteSpace=wrap;html=1;sketch=1;curveFitting=1;jiggle=2;" parent="1" vertex="1">
          <mxGeometry x="485" y="550" width="100" height="30" as="geometry" />
        </mxCell>
        <mxCell id="hsYkVXqX7cKiI_WS-YSM-38" value="&lt;span style=&quot;font-size: 14px;&quot;&gt;* link reviews to bookings&lt;/span&gt;" style="rounded=0;whiteSpace=wrap;html=1;sketch=1;curveFitting=1;jiggle=2;" parent="1" vertex="1">
          <mxGeometry x="485" y="590" width="100" height="30" as="geometry" />
        </mxCell>
        <mxCell id="hsYkVXqX7cKiI_WS-YSM-39" style="edgeStyle=orthogonalEdgeStyle;rounded=1;orthogonalLoop=1;jettySize=auto;html=1;entryX=0;entryY=0.5;entryDx=0;entryDy=0;sketch=1;curveFitting=1;jiggle=2;curved=0;strokeColor=#FF0000;endArrow=oval;endFill=1;jumpStyle=arc;" parent="1" source="hsYkVXqX7cKiI_WS-YSM-18" target="hsYkVXqX7cKiI_WS-YSM-36" edge="1">
          <mxGeometry relative="1" as="geometry">
            <Array as="points">
              <mxPoint x="87" y="300" />
              <mxPoint x="432" y="300" />
              <mxPoint x="432" y="525" />
            </Array>
          </mxGeometry>
        </mxCell>
        <mxCell id="hsYkVXqX7cKiI_WS-YSM-40" style="edgeStyle=orthogonalEdgeStyle;rounded=1;orthogonalLoop=1;jettySize=auto;html=1;entryX=0;entryY=0.5;entryDx=0;entryDy=0;sketch=1;curveFitting=1;jiggle=2;strokeColor=#3333FF;dashed=1;curved=0;endArrow=oval;endFill=1;" parent="1" source="hsYkVXqX7cKiI_WS-YSM-4" target="hsYkVXqX7cKiI_WS-YSM-37" edge="1">
          <mxGeometry relative="1" as="geometry">
            <Array as="points">
              <mxPoint x="152" y="535" />
              <mxPoint x="152" y="600" />
              <mxPoint x="432" y="600" />
              <mxPoint x="432" y="565" />
            </Array>
          </mxGeometry>
        </mxCell>
        <mxCell id="hsYkVXqX7cKiI_WS-YSM-41" value="&lt;div&gt;&lt;b&gt;Notification System&lt;/b&gt;&lt;/div&gt;" style="rounded=1;whiteSpace=wrap;html=1;fontSize=14;verticalAlign=top;sketch=1;curveFitting=1;jiggle=2;" parent="1" vertex="1">
          <mxGeometry x="452" y="650" width="166" height="150" as="geometry" />
        </mxCell>
        <mxCell id="hsYkVXqX7cKiI_WS-YSM-42" value="&lt;span style=&quot;font-size: 14px;&quot;&gt;* notify for confirmed booking&lt;/span&gt;" style="rounded=0;whiteSpace=wrap;html=1;sketch=1;curveFitting=1;jiggle=2;" parent="1" vertex="1">
          <mxGeometry x="476.5" y="678" width="117" height="30" as="geometry" />
        </mxCell>
        <mxCell id="hsYkVXqX7cKiI_WS-YSM-43" value="&lt;span style=&quot;font-size: 14px;&quot;&gt;* notify for cancelled booking&lt;/span&gt;" style="rounded=0;whiteSpace=wrap;html=1;sketch=1;curveFitting=1;jiggle=2;" parent="1" vertex="1">
          <mxGeometry x="476.5" y="718" width="117" height="30" as="geometry" />
        </mxCell>
        <mxCell id="hsYkVXqX7cKiI_WS-YSM-44" value="&lt;span style=&quot;font-size: 14px;&quot;&gt;* confirm booking status&lt;/span&gt;" style="rounded=0;whiteSpace=wrap;html=1;sketch=1;curveFitting=1;jiggle=2;" parent="1" vertex="1">
          <mxGeometry x="476.5" y="758" width="115.5" height="30" as="geometry" />
        </mxCell>
        <mxCell id="hsYkVXqX7cKiI_WS-YSM-46" value="&lt;div&gt;&lt;b&gt;Admin Dashboard&lt;/b&gt;&lt;/div&gt;" style="rounded=1;whiteSpace=wrap;html=1;fontSize=14;verticalAlign=top;sketch=1;curveFitting=1;jiggle=2;" parent="1" vertex="1">
          <mxGeometry x="452" y="820" width="166" height="200" as="geometry" />
        </mxCell>
        <mxCell id="hsYkVXqX7cKiI_WS-YSM-47" value="&lt;span style=&quot;font-size: 14px;&quot;&gt;* managing and monitor users&lt;/span&gt;" style="rounded=0;whiteSpace=wrap;html=1;sketch=1;curveFitting=1;jiggle=2;" parent="1" vertex="1">
          <mxGeometry x="476.5" y="848" width="117" height="30" as="geometry" />
        </mxCell>
        <mxCell id="hsYkVXqX7cKiI_WS-YSM-48" value="&lt;span style=&quot;font-size: 14px;&quot;&gt;*&amp;nbsp;&lt;/span&gt;&lt;span style=&quot;font-size: 14px;&quot;&gt;managing and monitor listings&lt;/span&gt;" style="rounded=0;whiteSpace=wrap;html=1;sketch=1;curveFitting=1;jiggle=2;" parent="1" vertex="1">
          <mxGeometry x="476.5" y="888" width="117" height="30" as="geometry" />
        </mxCell>
        <mxCell id="hsYkVXqX7cKiI_WS-YSM-49" value="&lt;span style=&quot;font-size: 14px;&quot;&gt;*&amp;nbsp;&lt;/span&gt;&lt;span style=&quot;font-size: 14px;&quot;&gt;managing and monitor bookings&lt;/span&gt;" style="rounded=0;whiteSpace=wrap;html=1;sketch=1;curveFitting=1;jiggle=2;" parent="1" vertex="1">
          <mxGeometry x="476.5" y="928" width="115.5" height="30" as="geometry" />
        </mxCell>
        <mxCell id="hsYkVXqX7cKiI_WS-YSM-50" value="&lt;span style=&quot;font-size: 14px;&quot;&gt;*&amp;nbsp;&lt;/span&gt;&lt;span style=&quot;font-size: 14px;&quot;&gt;managing and monitor payments&lt;/span&gt;" style="rounded=0;whiteSpace=wrap;html=1;sketch=1;curveFitting=1;jiggle=2;" parent="1" vertex="1">
          <mxGeometry x="476.5" y="970" width="115.5" height="30" as="geometry" />
        </mxCell>
        <mxCell id="hsYkVXqX7cKiI_WS-YSM-52" style="edgeStyle=orthogonalEdgeStyle;rounded=1;orthogonalLoop=1;jettySize=auto;html=1;entryX=1;entryY=0.5;entryDx=0;entryDy=0;sketch=1;curveFitting=1;jiggle=2;curved=0;endArrow=oval;endFill=1;strokeColor=#009900;dashed=1;" parent="1" source="hsYkVXqX7cKiI_WS-YSM-51" target="hsYkVXqX7cKiI_WS-YSM-46" edge="1">
          <mxGeometry relative="1" as="geometry" />
        </mxCell>
        <mxCell id="hsYkVXqX7cKiI_WS-YSM-55" style="edgeStyle=orthogonalEdgeStyle;rounded=1;orthogonalLoop=1;jettySize=auto;html=1;entryX=1;entryY=0.5;entryDx=0;entryDy=0;strokeColor=#009900;sketch=1;curveFitting=1;jiggle=2;curved=0;dashed=1;" parent="1" source="hsYkVXqX7cKiI_WS-YSM-51" target="hsYkVXqX7cKiI_WS-YSM-41" edge="1">
          <mxGeometry relative="1" as="geometry" />
        </mxCell>
        <mxCell id="hsYkVXqX7cKiI_WS-YSM-56" style="edgeStyle=orthogonalEdgeStyle;rounded=1;orthogonalLoop=1;jettySize=auto;html=1;entryX=1;entryY=0.5;entryDx=0;entryDy=0;strokeColor=#009900;sketch=1;curveFitting=1;jiggle=2;curved=0;dashed=1;" parent="1" source="hsYkVXqX7cKiI_WS-YSM-51" target="hsYkVXqX7cKiI_WS-YSM-38" edge="1">
          <mxGeometry relative="1" as="geometry">
            <Array as="points">
              <mxPoint x="695" y="920" />
              <mxPoint x="695" y="605" />
            </Array>
          </mxGeometry>
        </mxCell>
        <mxCell id="hsYkVXqX7cKiI_WS-YSM-51" value="Admin" style="shape=umlActor;verticalLabelPosition=bottom;verticalAlign=top;html=1;outlineConnect=0;strokeColor=#009900;sketch=1;curveFitting=1;jiggle=2;" parent="1" vertex="1">
          <mxGeometry x="765" y="890" width="30" height="60" as="geometry" />
        </mxCell>
        <mxCell id="hsYkVXqX7cKiI_WS-YSM-57" value="&lt;font style=&quot;font-size: 30px;&quot;&gt;AirBnb Use Case Diagram&lt;/font&gt;" style="shape=process;whiteSpace=wrap;html=1;backgroundOutline=1;sketch=1;curveFitting=1;jiggle=2;size=0.05333333333333334;" parent="1" vertex="1">
          <mxGeometry x="38" y="40" width="750" height="60" as="geometry" />
        </mxCell>
      </root>
    </mxGraphModel>
  </diagram>
</mxfile>
